<?xml version="1.0" standalone="no"?>
<!DOCTYPE svg PUBLIC "-//W3C//DTD SVG 1.1//EN" "http://www.w3.org/Graphics/SVG/1.1/DTD/svg11.dtd" >
<svg xmlns="http://www.w3.org/2000/svg">
<metadata>Generated by IcoMoon</metadata>
<defs>
<font id="ETBuilder" horiz-adv-x="512">
<font-face units-per-em="512" ascent="480" descent="-32" />
<missing-glyph horiz-adv-x="512" />
<glyph unicode="&#x20;" d="" horiz-adv-x="256" />
<glyph unicode="&#x21;" d="M112 224h288c8.832 0 16 7.168 16 16s-7.168 16-16 16h-288c-8.832 0-16-7.168-16-16s7.168-16 16-16zM112 320h288c8.832 0 16 7.168 16 16s-7.168 16-16 16h-288c-8.832 0-16-7.168-16-16s7.168-16 16-16zM112 128h288c8.832 0 16 7.168 16 16s-7.168 16-16 16h-288c-8.832 0-16-7.168-16-16s7.168-16 16-16z" />
<glyph unicode="&#x22;" d="M160.8 96.8c6.24-6.24 16.384-6.24 22.624 0l88.576 88.576 88.576-88.576c6.24-6.24 16.384-6.24 22.624 0s6.24 16.384 0 22.624l-88.576 88.576 88.576 88.576c6.24 6.24 6.24 16.384 0 22.624s-16.384 6.24-22.624 0l-88.576-88.576-88.576 88.576c-6.24 6.24-16.384 6.24-22.624 0s-6.24-16.384 0-22.624l88.576-88.576-88.576-88.576c-6.24-6.24-6.24-16.384 0-22.624z" />
<glyph unicode="&#x23;" d="M128 320v-224c0-17.664 14.336-32 32-32h224c17.664 0 32 14.336 32 32v224c0 17.664-14.336 32-32 32h-224c-17.664 0-32-14.336-32-32zM384 96h-224v224h224v-224zM208 192h48v-48c0-8.832 7.168-16 16-16s16 7.168 16 16v48h48c8.832 0 16 7.168 16 16s-7.168 16-16 16h-48v48c0 8.832-7.168 16-16 16s-16-7.168-16-16v-48h-48c-8.832 0-16-7.168-16-16s7.168-16 16-16z" />
<glyph unicode="&#x24;" d="M480 432h-128c-17.664 0-32-14.336-32-32 0 0-4.16-29.344-32-32h-224c-17.664 0-32-14.336-32-32v-288c0-17.664 14.336-32 32-32h416c17.664 0 32 14.336 32 32v352c0 17.664-14.336 32-32 32zM368 176h-80v-80c0-8.832-7.168-16-16-16s-16 7.168-16 16v80h-80c-8.832 0-16 7.168-16 16s7.168 16 16 16h80v80c0 8.832 7.168 16 16 16s16-7.168 16-16v-80h80c8.832 0 16-7.168 16-16s-7.168-16-16-16z" />
<glyph unicode="&#x25;" d="M272 448c-132.544 0-240-107.456-240-240s107.456-240 240-240 240 107.456 240 240-107.456 240-240 240zM383.2 296.576l-89.184-89.184 78.912-87.968c6.24-6.24 6.24-16.384 0-22.624s-16.384-6.24-22.624 0l-78.912 87.968-87.968-87.968c-6.24-6.24-16.384-6.24-22.624 0-6.24 6.24-6.24 16.384 0 22.624l89.184 89.184-78.912 87.968c-6.24 6.24-6.24 16.384 0 22.624s16.384 6.24 22.624 0l78.912-87.968 87.968 87.968c6.24 6.24 16.384 6.24 22.624 0s6.24-16.384 0-22.624z" />
<glyph unicode="&#x26;" d="M275.648 292.992c0-24.583 19.928-44.512 44.512-44.512s44.512 19.929 44.512 44.512c0 24.584-19.928 44.512-44.512 44.512-24.584 0-44.512-19.929-44.512-44.512zM416 32h32v192l-128-96-160 128-96-96v-128h32zM480 416h-448c-17.664 0-32-14.336-32-32v-384c0-17.664 14.336-32 32-32h448c17.664 0 32 14.336 32 32v384c0 17.664-14.336 32-32 32zM480 0h-448v384h448v-384z" />
<glyph unicode="&#x27;" d="M480 384h-32v64c0 17.664-14.336 32-32 32h-384c-17.664 0-32-14.336-32-32v-352c0-17.664 14.336-32 32-32h32v-64c0-17.664 14.336-32 32-32h384c17.664 0 32 14.336 32 32v352c0 17.664-14.336 32-32 32zM32 96v352h384v-352h-384zM480 0h-384v64h32v-32h320v320h32v-352zM236.64 348.992c0-24.583 19.928-44.512 44.512-44.512s44.512 19.928 44.512 44.512c0 24.584-19.928 44.512-44.512 44.512-24.584 0-44.512-19.929-44.512-44.512zM160 320l-96-64v-128h320v160l-128-64z" />
<glyph unicode="&#x28;" d="M64-32h384c17.664 0 32 14.336 32 32v448c0 17.664-14.336 32-32 32h-384c-17.664 0-32-14.336-32-32v-448c0-17.664 14.336-32 32-32zM64 448h384v-448h-384v448zM368 384h-128c-8.832 0-16-7.168-16-16s7.168-16 16-16h128c8.832 0 16 7.168 16 16s-7.168 16-16 16zM368 288h-224c-8.832 0-16-7.168-16-16s7.168-16 16-16h224c8.832 0 16 7.168 16 16s-7.168 16-16 16zM368 192h-224c-8.832 0-16-7.168-16-16s7.168-16 16-16h224c8.832 0 16 7.168 16 16s-7.168 16-16 16zM368 96h-224c-8.832 0-16-7.168-16-16s7.168-16 16-16h224c8.832 0 16 7.168 16 16s-7.168 16-16 16z" />
<glyph unicode="&#x2a;" d="M256 480c-141.376 0-256-114.624-256-256s114.624-256 256-256 256 114.624 256 256-114.624 256-256 256zM256 0c-123.52 0-224 100.48-224 224s100.48 224 224 224 224-100.48 224-224-100.48-224-224-224zM205.024 307.584c-2.784 2.368-5.28 4.032-7.456 5.28-0.096 0.064-0.16 0.16-0.256 0.192-0.16 0.096-0.32 0.128-0.48 0.192-3.168 1.76-5.44 2.592-5.44 2.592l0.16-0.384c-5.152 2.112-10.56 3.616-16.448 3.616-26.048 0-47.136-21.92-47.136-48.96 0-27.040 21.12-48.96 47.136-48.96 8.352 0 16.064 2.432 22.88 6.4-2.336-26.176-15.52-64.352-63.84-103.264-6.752-5.472-8-15.584-2.752-22.592 3.072-4.096 7.648-6.24 12.256-6.24 3.328 0 6.656 1.088 9.504 3.392 59.296 47.84 74.112 96.992 76.096 129.824 3.392 41.984-9.344 64.064-20.992 75.584-1.056 1.12-2.048 2.336-3.232 3.328zM360.16 307.584c-2.784 2.368-5.28 4.032-7.456 5.28-0.096 0.064-0.16 0.128-0.256 0.192-0.16 0.096-0.32 0.128-0.48 0.192-3.168 1.728-5.44 2.592-5.44 2.592l0.16-0.384c-5.152 2.112-10.592 3.616-16.448 3.616-26.048 0-47.136-21.92-47.136-48.96 0-27.040 21.088-48.96 47.136-48.96 8.352 0 16.064 2.432 22.88 6.4-2.336-26.176-15.52-64.352-63.84-103.264-6.784-5.472-8-15.584-2.752-22.592 3.072-4.096 7.648-6.24 12.256-6.24 3.328 0 6.656 1.088 9.504 3.392 59.296 47.84 74.112 96.992 76.096 129.824 3.392 41.984-9.376 64.064-20.992 75.584-1.056 1.12-2.048 2.336-3.232 3.328z" />
<glyph unicode="&#x2f;" d="M480 448h-416c-17.664 0-32-14.336-32-32v-416c0-17.664 14.336-32 32-32h416c17.664 0 32 14.336 32 32v416c0 17.664-14.336 32-32 32zM480 0h-416v416h416v-416zM144 192h256c8.832 0 16 7.168 16 16s-7.168 16-16 16h-256c-8.832 0-16-7.168-16-16s7.168-16 16-16zM144 288h256c8.832 0 16 7.168 16 16s-7.168 16-16 16h-256c-8.832 0-16-7.168-16-16s7.168-16 16-16zM144 96h256c8.832 0 16 7.168 16 16s-7.168 16-16 16h-256c-8.832 0-16-7.168-16-16s7.168-16 16-16z" />
<glyph unicode="&#x30;" d="M157.248 474.304c-4.352 5.152-11.424 7.040-17.728 4.736-6.304-2.304-10.528-8.32-10.528-15.040v-417.504c0-6.912 4.416-13.024 10.976-15.2 1.632-0.544 3.328-0.8 5.024-0.8 4.96 0 9.76 2.304 12.832 6.464l71.552 96.384 49.632-141.984c6.368-18.176 26.272-27.776 44.448-21.408s27.776 26.272 21.408 44.448l-48.704 139.296 111.936-21.664c6.688-1.344 13.408 1.76 16.832 7.584 3.424 5.856 2.816 13.216-1.568 18.4l-266.112 316.288zM247.2 195.808c-6.048 1.216-12.224-1.216-15.872-6.176l-70.304-94.72v325.216l208.768-248.064-122.592 23.744z" />
<glyph unicode="&#x31;" d="M480 416h-448c-17.664 0-32-14.336-32-32v-320c0-17.664 14.336-32 32-32h448c17.664 0 32 14.336 32 32v320c0 17.664-14.336 32-32 32zM181.76 191.136l74.304-50.496 73.856 50.848 127.456-127.488h-402.752l127.136 127.136zM32 86.624v206.336l122.816-83.488-122.816-122.848zM356.704 209.92l123.296 84.864v-208.16l-123.296 123.296zM480 384v-51.776l-0.672 0.96-223.392-153.824-223.936 152.256v52.384h448z" />
<glyph unicode="&#x32;" d="M176 224h256c8.832 0 16 7.168 16 16s-7.168 16-16 16h-256c-8.832 0-16-7.168-16-16s7.168-16 16-16zM176 352h256c8.832 0 16 7.168 16 16s-7.168 16-16 16h-256c-8.832 0-16-7.168-16-16s7.168-16 16-16zM176 96h256c8.832 0 16 7.168 16 16s-7.168 16-16 16h-256c-8.832 0-16-7.168-16-16s7.168-16 16-16zM64 368c0-8.837 7.163-16 16-16s16 7.163 16 16c0 8.837-7.163 16-16 16-8.837 0-16-7.163-16-16zM64 240c0-8.837 7.163-16 16-16s16 7.163 16 16c0 8.837-7.163 16-16 16-8.837 0-16-7.163-16-16zM64 112c0-8.837 7.163-16 16-16s16 7.163 16 16c0 8.837-7.163 16-16 16-8.837 0-16-7.163-16-16z" />
<glyph unicode="&#x33;" d="M446.56 291.36c2.816-12.672 4.448-25.696 4.448-39.072 0-103.296-87.68-189.408-203.136-207.904 24.416-9.856 51.776-15.616 80.928-15.616 27.488 0 53.44 5.056 76.864 13.856 29.664-10.112 62.048-12.736 88.832-12.736-13.92 16.704-23.584 33.088-30.496 47.488 29.696 26.496 48 61.6 48 100.256 0 45.696-25.504 86.432-65.44 113.728zM23.552 73.312c2.784-5.28 8.256-8.576 14.176-8.576 0.256 0 0.544 0 0.768 0.032 16.928 0.8 50.592 12.032 86.24 34.656 19.072-3.36 61.792-9.696 76.704-9.696 112.544 0 200.672 78.368 200.672 178.432 0 98.4-89.984 178.432-200.672 178.432s-200.608-80-200.608-178.4c0-45.792 20.16-90.048 55.648-123.168-7.968-19.392-18.528-37.728-31.424-54.528-3.808-4.928-4.384-11.648-1.504-17.184zM32.832 268.192c0 80.736 75.648 146.432 168.672 146.432s168.672-65.696 168.672-146.432c0-83.456-72.512-146.432-168.672-146.432-12.64 0-62.944 7.328-76.768 10.24-4.224 0.832-8.608 0.064-12.128-2.336-13.728-9.088-26.656-15.968-37.92-21.024 6.112 11.488 11.392 23.392 15.808 35.68 2.272 6.368 0.32 13.472-4.864 17.76-34.048 28-52.8 65.696-52.8 106.112z" />
<glyph unicode="&#x36;" d="M96 32c0-17.673 14.327-32 32-32s32 14.327 32 32c0 17.673-14.327 32-32 32-17.673 0-32-14.327-32-32zM384 32c0-17.673 14.327-32 32-32s32 14.327 32 32c0 17.673-14.327 32-32 32-17.673 0-32-14.327-32-32zM-0.928 432c0-8.832 7.168-16 16-16h33.248l19.872-84.992 27.808-139.008c0-1.152 0.544-2.144 0.672-3.264l-16.288-73.28c-1.056-4.736 0.096-9.696 3.136-13.472 3.040-3.808 7.616-5.984 12.48-5.984h363.008c8.832 0 16 7.168 16 16s-7.168 16-16 16h-343.040l7.328 32.96c1.6-0.256 3.040-0.96 4.704-0.96h291.68c17.664 0 28.32 3.488 36.832 24l51.968 159.424c9.024 28.576-10.784 40.576-28.48 40.576h-384c-2.496 0-4.672-0.864-7.008-1.408l-12.416 53.056c-1.696 7.232-8.128 12.352-15.584 12.352h-45.92c-8.864 0-16-7.168-16-16zM96.64 352h380.96l-51.072-156.768c-0.608-1.376-1.12-2.368-1.504-3.040-1.056-0.096-2.72-0.192-5.344-0.192h-291.68v3.168l-0.608 3.104-30.752 153.728z" />
<glyph unicode="&#x37;" d="M480 480h-448c-17.664 0-32-14.336-32-32v-448c0-17.664 14.336-32 32-32h448c17.664 0 32 14.336 32 32v448c0 17.664-14.336 32-32 32zM89.184 333.248c-15.904 15.904-15.904 41.664 0 57.568s41.664 15.904 57.568 0l42.368-42.368-57.568-57.568-42.368 42.368zM329.92 92.512l-164.48 164.48 57.568 57.568 164.48-164.48 28.512-86.080-86.080 28.512z" />
<glyph unicode="&#x38;" d="M448 416c-8.992 20-25.312 32-43.008 32h-300.992c-17.664 0-32-12-40-32l-64-256v-144.512c0-8.832 7.168-16 16-16h480c8.832 0 16 7.168 16 16v142.528l-0.416 1.472-63.584 256.512zM94.24 405.344c1.472 3.296 5.216 10.656 9.76 10.656h300.992c4.384 0 9.44-4.512 12.992-11.392l56.352-229.024c0-0.064-0.096 0-0.096-0.064 0-8.832-7.168-16-16-16-0.032 0-0.032-0.032-0.064-0.032h-122.176c-8.832 0-16-7.168-16-16v-31.488c0-8.832-7.168-16-16-16-0.32 0-0.64-0.416-0.96-0.512h-94.496c-0.224 0.096-0.224 0.512-0.544 0.512-8.832 0-16 7.168-16 16v31.488c0 8.832-7.168 16-16 16h-122.176c-0.032 0-0.032 0.032-0.064 0.032-8.832 0-16.256 7.168-16.256 16 0 0.224-0.256 0.064-0.32 0.224l57.056 229.6z" />
<glyph unicode="&#x39;" d="M64 32h32v-32c0-17.664 14.336-32 32-32h320c17.664 0 32 14.336 32 32v384c0 17.664-14.336 32-32 32h-32v32c0 17.664-14.336 32-32 32h-320c-17.664 0-32-14.336-32-32v-384c0-17.664 14.336-32 32-32zM448 384v-384h-320v32h256c17.664 0 32 14.336 32 32v320h32zM336 416c8.832 0 16-7.168 16-16s-7.168-16-16-16h-129.344c-8.832 0-16 7.168-16 16s7.168 16 16 16h129.344zM110.656 320h225.344c8.832 0 16-7.168 16-16s-7.168-16-16-16h-225.344c-8.832 0-16 7.168-16 16s7.168 16 16 16zM110.656 224h225.344c8.832 0 16-7.168 16-16s-7.168-16-16-16h-225.344c-8.832 0-16 7.168-16 16s7.168 16 16 16zM110.656 128h225.344c8.832 0 16-7.168 16-16s-7.168-16-16-16h-225.344c-8.832 0-16 7.168-16 16s7.168 16 16 16z" />
<glyph unicode="&#x40;" d="M384 480h-352c-17.664 0-32-14.336-32-32v-448c0-17.664 14.336-32 32-32h448c17.664 0 32 14.336 32 32v384l-96 96h-32zM352 320v128h32v-128c0-17.664-14.336-32-32-32h-192c-17.664 0-32 14.336-32 32v128h128v-128h96zM96 192c0 17.664 14.336 32 32 32h256c17.664 0 32-14.336 32-32v-192h-320v192z" />
<glyph unicode="&#x43;" d="M352 208v128c0 9.6-6.4 16-16 16h-224c-9.6 0-16-6.4-16-16v-128c0-9.6 6.4-16 16-16h224c9.6 0 16 6.4 16 16zM320 224h-192v96h192v-96zM400 288c-9.6 0-16-6.4-16-16v-112h-208c-9.6 0-16-6.4-16-16s6.4-16 16-16h224c9.6 0 16 6.4 16 16v128c0 9.6-6.4 16-16 16z" />
<glyph unicode="&#x44;" d="M480 384h-32v64c0 17.664-14.336 32-32 32h-384c-17.664 0-32-14.336-32-32v-352c0-17.664 14.336-32 32-32h32v-64c0-17.664 14.336-32 32-32h384c17.664 0 32 14.336 32 32v352c0 17.664-14.336 32-32 32zM32 96v352h384v-352h-384zM480 0h-384v64h32v-32h320v320h32v-352zM236.64 348.992c0-24.583 19.928-44.512 44.512-44.512s44.512 19.928 44.512 44.512c0 24.584-19.928 44.512-44.512 44.512-24.584 0-44.512-19.929-44.512-44.512zM160 320l-96-64v-128h320v160l-128-64z" />
<glyph unicode="&#x47;" d="M352 384c0 51.392-44.608 96-96 96s-96-44.608-96-96c0-51.392 44.608-96 96-96s96 44.608 96 96zM256 256c-84.096 0-160-90.72-160-203.456s320-112.736 320 0-75.904 203.456-160 203.456z" />
<glyph unicode="&#x49;" d="M256 480c-94.816 0-179.52-51.36-224.16-132.8v52.8c0 8.832-7.168 16-16 16s-16-7.168-16-16v-96c0-8.832 7.168-16 16-16 0.032 0 0.064 0 0.064 0s0.064 0 0.096 0h96c8.832 0 16 7.168 16 16s-7.168 16-16 16h-57.888c37.056 78.016 114.464 128 201.888 128 123.584 0 224.16-100.512 224.16-224s-100.576-224-224.16-224c-105.568 0-197.856 74.816-219.392 177.92-1.824 8.64-10.496 14.368-18.944 12.384-8.672-1.824-14.208-10.304-12.384-18.976 24.672-117.792 130.080-203.328 250.72-203.328 141.248 0 256.16 114.848 256.16 256s-114.912 256-256.16 256zM240 384c-8.832 0-16-7.168-16-16v-160.128c0-8.832 7.168-16 16-16 0.224 0 0.416 0.128 0.64 0.128h127.36c8.832 0 16 7.168 16 16s-7.168 16-16 16h-112v144c0 8.832-7.168 16-16 16z" />
<glyph unicode="&#x50;" d="M448 288h-384c-17.664 0-32-14.336-32-32v-64c0-17.664 14.336-32 32-32h384c17.664 0 32 14.336 32 32v64c0 17.664-14.336 32-32 32zM448 192h-384v64h384v-64zM448 128h-384c-17.664 0-32-14.336-32-32v-64c0-17.664 14.336-32 32-32h384c17.664 0 32 14.336 32 32v64c0 17.664-14.336 32-32 32zM448 32h-384v64h384v-64zM448 448h-384c-17.664 0-32-14.336-32-32v-64c0-17.664 14.336-32 32-32h384c17.664 0 32 14.336 32 32v64c0 17.664-14.336 32-32 32zM448 352h-384v64h384v-64z" />
<glyph unicode="&#x51;" d="M480 448h-448c-17.664 0-32-14.336-32-32v-352c0-17.664 14.336-32 32-32h448c17.664 0 32 14.336 32 32v352c0 17.664-14.336 32-32 32zM480 416v-32h-128v32h128zM192 416h128v-32h-128v32zM480 64h-448v352h128v-64h320v-288zM80 272c0-8.832 7.168-16 16-16h320c8.832 0 16 7.168 16 16s-7.168 16-16 16h-320c-8.832 0-16-7.168-16-16zM416 224h-320c-8.832 0-16-7.168-16-16s7.168-16 16-16h320c8.832 0 16 7.168 16 16s-7.168 16-16 16zM416 160h-320c-8.832 0-16-7.168-16-16s7.168-16 16-16h320c8.832 0 16 7.168 16 16s-7.168 16-16 16z" />
<glyph unicode="&#x52;" d="M48 160c79.392 0 144-64.608 144-144 0-8.832 7.168-16 16-16s16 7.168 16 16c0 97.056-78.944 176-176 176-8.832 0-16-7.168-16-16s7.168-16 16-16zM48 288c149.984 0 272-122.016 272-272 0-8.832 7.168-16 16-16s16 7.168 16 16c0 167.616-136.384 304-304 304-8.832 0-16-7.168-16-16s7.168-16 16-16zM48 416c220.576 0 400-179.424 400-400 0-8.832 7.168-16 16-16s16 7.168 16 16c0 238.208-193.792 432-432 432-8.832 0-16-7.168-16-16s7.168-16 16-16zM96 32c0-17.673-14.327-32-32-32s-32 14.327-32 32c0 17.673 14.327 32 32 32 17.673 0 32-14.327 32-32z" />
<glyph unicode="&#x53;" d="M364.672 332.512c0-24.584-19.928-44.512-44.512-44.512s-44.512 19.928-44.512 44.512c0 24.584 19.928 44.512 44.512 44.512 24.584 0 44.512-19.928 44.512-44.512zM224 288l-96-64v-96h256v128l-64-32zM480 416h-32c0 17.664-14.336 32-32 32h-320c-17.664 0-32-14.336-32-32h-32c-17.664 0-32-14.336-32-32v-256c0-17.664 14.336-32 32-32h32c0-17.664 14.336-32 32-32h320c17.664 0 32 14.336 32 32h32c17.664 0 32 14.336 32 32v256c0 17.664-14.336 32-32 32zM32 128v256h32v-256h-32zM416 96h-320v320h320v-320zM480 128h-32v256h32v-256zM272 16c0-8.837-7.163-16-16-16s-16 7.163-16 16c0 8.837 7.163 16 16 16 8.837 0 16-7.163 16-16zM336 16c0-8.837-7.163-16-16-16s-16 7.163-16 16c0 8.837 7.163 16 16 16 8.837 0 16-7.163 16-16zM208 16c0-8.837-7.163-16-16-16s-16 7.163-16 16c0 8.837 7.163 16 16 16 8.837 0 16-7.163 16-16z" />
<glyph unicode="&#x54;" d="M480 480h-448c-17.664 0-32-14.336-32-32v-448c0-17.664 14.336-32 32-32h448c17.664 0 32 14.336 32 32v448c0 17.664-14.336 32-32 32zM32 0v448h288v-448h-288zM480 0h-128v448h128v-448zM400 352h32c8.832 0 16 7.168 16 16s-7.168 16-16 16h-32c-8.832 0-16-7.168-16-16s7.168-16 16-16zM400 256h32c8.832 0 16 7.168 16 16s-7.168 16-16 16h-32c-8.832 0-16-7.168-16-16s7.168-16 16-16zM400 160h32c8.832 0 16 7.168 16 16s-7.168 16-16 16h-32c-8.832 0-16-7.168-16-16s7.168-16 16-16zM432 96h-32c-8.832 0-16-7.168-16-16s7.168-16 16-16h32c8.832 0 16 7.168 16 16s-7.168 16-16 16z" />
<glyph unicode="&#x55;" d="M416 320c35.36 0 64 28.64 64 64s-28.64 64-64 64-64-28.64-64-64c0-4.608 0.544-9.056 1.44-13.376l-209.408-104.736c-11.744 13.44-28.8 22.112-48.032 22.112-35.36 0-64-28.64-64-64s28.64-64 64-64c19.232 0 36.288 8.672 48.032 22.112l209.44-104.704c-0.928-4.352-1.472-8.8-1.472-13.408 0-35.36 28.64-64 64-64s64 28.64 64 64-28.64 64-64 64c-19.232 0-36.288-8.672-48.032-22.112l-209.408 104.736c0.896 4.32 1.44 8.768 1.44 13.376s-0.544 9.056-1.44 13.376l209.44 104.704c11.712-13.408 28.768-22.080 48-22.080zM384 64c0 17.632 14.368 32 32 32s32-14.368 32-32-14.368-32-32-32-32 14.368-32 32zM128 224c0-17.632-14.368-32-32-32s-32 14.368-32 32 14.368 32 32 32 32-14.368 32-32zM416 416c17.632 0 32-14.368 32-32s-14.368-32-32-32-32 14.368-32 32 14.368 32 32 32z" />
<glyph unicode="&#x56;" d="M480 448h-64c0 17.664-14.336 32-32 32h-256c-17.664 0-32-14.336-32-32h-64c-17.664 0-32-14.336-32-32v-384c0-17.664 14.336-32 32-32h64c0-17.664 14.336-32 32-32h256c17.664 0 32 14.336 32 32h64c17.664 0 32 14.336 32 32v384c0 17.664-14.336 32-32 32zM480 416v-64h-64v64h64zM128 448h256v-64h-256v64zM96 416v-64h-64v64h64zM32 32v288h64v-32h-16c-8.832 0-16-7.168-16-16s7.168-16 16-16h16v-32h-16c-8.832 0-16-7.168-16-16s7.168-16 16-16h16v-32h-16c-8.832 0-16-7.168-16-16s7.168-16 16-16h16v-32h-16c-8.832 0-16-7.168-16-16s7.168-16 16-16h16v-32h-64zM384 0h-256v352h256v-352zM416 32v32h16c8.832 0 16 7.168 16 16s-7.168 16-16 16h-16v32h16c8.832 0 16 7.168 16 16s-7.168 16-16 16h-16v32h16c8.832 0 16 7.168 16 16s-7.168 16-16 16h-16v32h16c8.832 0 16 7.168 16 16s-7.168 16-16 16h-16v32h64v-288h-64zM336 320h-160c-8.832 0-16-7.168-16-16s7.168-16 16-16h160c8.832 0 16 7.168 16 16s-7.168 16-16 16zM336 256h-160c-8.832 0-16-7.168-16-16s7.168-16 16-16h160c8.832 0 16 7.168 16 16s-7.168 16-16 16zM336 192h-160c-8.832 0-16-7.168-16-16s7.168-16 16-16h160c8.832 0 16 7.168 16 16s-7.168 16-16 16zM320 128h-128c-17.664 0-32-14.336-32-32v-32c0-17.664 14.336-32 32-32h128c17.664 0 32 14.336 32 32v32c0 17.664-14.336 32-32 32zM320 64h-128v32h128v-32z" />
<glyph unicode="&#x57;" d="M480 416h-448c-17.664 0-32-15.296-32-32.928v-351.136c0-17.632 14.336-31.936 32-31.936h448c17.664 0 32 14.304 32 31.936v351.136c0 17.632-14.336 32.928-32 32.928zM192 288v96h128v-96h-128zM320 256v-98.656h-128v98.656h128zM32 384h128v-96h-128v96zM32 256h128v-98.656h-128v98.656zM480 32l-448-0.064v96.064h128v-96h32v96h128v-96h32v96h128v-96zM480 157.344h-128v98.656h128v-98.656zM480 383.072v-95.072h-128v96h128v-0.928z" />
<glyph unicode="&#x58;" d="M368 288h-38.688l6.528 45.728c1.248 8.736-4.832 16.864-13.6 18.112-8.672 1.248-16.8-4.832-18.080-13.568l-7.2-50.272h-63.68l6.528 45.728c1.28 8.768-4.8 16.864-13.568 18.112-8.64 1.248-16.832-4.832-18.080-13.568l-7.2-50.272h-40.96c-8.832 0-16-7.168-16-16s7.168-16 16-16h36.416l-9.152-64h-43.264c-8.832 0-16-7.168-16-16s7.168-16 16-16h38.688l-6.528-45.728c-1.248-8.736 4.832-16.864 13.6-18.112 0.736-0.128 1.536-0.16 2.272-0.16 7.808 0 14.656 5.76 15.808 13.728l7.2 50.272h63.68l-6.528-45.728c-1.248-8.736 4.832-16.864 13.6-18.112 0.704-0.128 1.504-0.16 2.24-0.16 7.808 0 14.656 5.76 15.808 13.728l7.2 50.272h40.96c8.832 0 16 7.168 16 16s-7.168 16-16 16h-36.416l9.152 64h43.264c8.832 0 16 7.168 16 16s-7.168 16-16 16zM283.264 192h-63.68l9.152 64h63.68l-9.152-64zM256 480c-141.152 0-256-114.848-256-256s114.848-256 256-256 256 114.848 256 256-114.848 256-256 256zM256 0c-123.488 0-224 100.48-224 224s100.512 224 224 224 224-100.48 224-224-100.512-224-224-224z" />
<glyph unicode="&#x59;" d="M486.944 415.232l-144 64c-2.272 0.512-4.608 0.768-6.944 0.768-2.080 0-4.192-0.192-6.24-0.608l-154.048-62.688-136.736 62.528c-2.304 0.512-4.64 0.768-6.976 0.768-7.2 0-14.272-2.432-20-7.040-7.584-6.048-12-15.232-12-24.96v-384c0-14.976 10.4-27.968 25.024-31.232l143.328-64c2.304-0.512 4.64-0.768 6.976-0.768 2.080 0 4.192 0.192 6.24 0.608l154.048 62.688 137.408-62.528c2.336-0.512 4.672-0.768 6.976-0.768 7.2 0 14.304 2.432 20.032 7.040 7.552 6.080 11.968 15.264 11.968 24.96v384c0 15.008-10.432 28-25.056 31.232zM192 390.624l128 50.976v-384l-128-50.976v384zM32 448l128-57.152v-384l-128 57.152v384zM480 0l-128 56.896v384l128-56.896v-384z" />
<glyph unicode="&#x60;" d="M257.504 448c55.84 0 105.6-32.096 129.888-83.776 3.776-8 13.312-11.424 21.28-7.68 8 3.776 11.424 13.312 7.68 21.28-29.632 63.040-90.464 102.176-158.848 102.176-93.568 0-161.504-75.040-161.504-178.272l-0.16-13.728h-31.84c-17.664 0-32-14.336-32-32v-256c0-17.664 14.336-32 32-32h384c17.664 0 32 14.336 32 32v256c0 17.664-14.336 32-32 32h-320.16l0.16 13.536c0 86.24 53.28 146.464 129.504 146.464zM448 0h-384v256h384v-256zM256 64c35.36 0 64 28.64 64 64s-28.64 64-64 64-64-28.64-64-64c0-35.36 28.64-64 64-64zM256 160c17.632 0 32-14.368 32-32s-14.368-32-32-32-32 14.368-32 32 14.368 32 32 32z" />
<glyph unicode="&#x61;" d="M480 480h-448c-17.664 0-32-14.336-32-32v-448c0-17.664 14.336-32 32-32h448c17.664 0 32 14.336 32 32v448c0 17.664-14.336 32-32 32zM480 0h-448v288h448v-288zM480 320h-448v128h448v-128zM80 384h352c8.832 0 16 7.168 16 16s-7.168 16-16 16h-352c-8.832 0-16-7.168-16-16s7.168-16 16-16z" />
<glyph unicode="&#x62;" d="M480 384h-160v64c0 17.664-14.336 32-32 32h-64c-17.664 0-32-14.336-32-32v-64h-160c-17.664 0-32-14.336-32-32v-352c0-17.664 14.336-32 32-32h448c17.664 0 32 14.336 32 32v352c0 17.664-14.336 32-32 32zM32 352h128.288c-0.192-4.64-0.288-9.92-0.288-16 0-26.496 21.504-48 48-48h96c26.496 0 48 21.504 48 48 0 6.080-0.096 11.36-0.288 16h128.288v-352h-448v352zM288 320h-64v128h64v-128zM434.656 160h-194.656c-8.832 0-16-7.168-16-16s7.168-16 16-16h194.656c8.832 0 16 7.168 16 16s-7.168 16-16 16zM434.656 96h-194.656c-8.832 0-16-7.168-16-16s7.168-16 16-16h194.656c8.832 0 16 7.168 16 16s-7.168 16-16 16zM434.656 224h-194.656c-8.832 0-16-7.168-16-16s7.168-16 16-16h194.656c8.832 0 16 7.168 16 16s-7.168 16-16 16zM166.592 217.344c0-21.349-17.307-38.656-38.656-38.656-21.349 0-38.656 17.307-38.656 38.656 0 21.349 17.307 38.656 38.656 38.656 21.349 0 38.656-17.307 38.656-38.656zM128.768 163.232c-34.944 0-63.232-37.952-63.232-84.8s126.464-46.816 126.464 0-28.32 84.8-63.232 84.8z" />
<glyph unicode="&#x63;" d="M480 384h-448c-17.664 0-32-15.296-32-32.928v-351.136c0-17.632 14.336-31.936 32-31.936h448c17.664 0 32 14.304 32 31.936v351.136c0 17.632-14.336 32.928-32 32.928zM192 256v96h128v-96h-128zM320 224v-98.656h-128v98.656h128zM32 352h128v-96h-128v96zM32 224h128v-98.656h-128v98.656zM480 0l-448-0.064v96.064h128v-96h32v96h128v-96h32v96h128v-96zM480 125.344h-128v98.656h128v-98.656zM480 351.072v-95.072h-128v96h128v-0.928zM48 448c-8.832 0-16-7.168-16-16s7.168-16 16-16h96c8.832 0 16 7.168 16 16s-7.168 16-16 16h-96zM208 448c-8.832 0-16-7.168-16-16s7.168-16 16-16h96c8.832 0 16 7.168 16 16s-7.168 16-16 16h-96zM368 448c-8.832 0-16-7.168-16-16s7.168-16 16-16h96c8.832 0 16 7.168 16 16s-7.168 16-16 16h-96z" />
<glyph unicode="&#x64;" d="M480 288h-192v137.376l36.672-36.672c6.24-6.24 16.384-6.24 22.624 0s6.24 16.384 0 22.624l-64 64c-1.472 1.472-3.232 2.624-5.184 3.424-3.904 1.632-8.32 1.632-12.224 0-1.92-0.768-3.616-1.92-5.088-3.36-0.032-0.032-0.064-0.032-0.128-0.064l-64-64c-6.24-6.24-6.24-16.384 0-22.624s16.384-6.24 22.624 0l36.704 36.672v-137.376h-192c-17.664 0-32-14.336-32-32v-32c0-17.664 14.336-32 32-32h192v-169.376l-36.672 36.672c-6.24 6.24-16.384 6.24-22.624 0s-6.24-16.384 0-22.624l64-64c0.032-0.032 0.096-0.032 0.128-0.096 1.44-1.408 3.168-2.592 5.056-3.36 3.904-1.632 8.32-1.632 12.224 0 1.952 0.8 3.712 1.984 5.184 3.456l64 64c6.24 6.24 6.24 16.384 0 22.624s-16.384 6.24-22.624 0l-36.672-36.672v169.376h192c17.664 0 32 14.336 32 32v32c0 17.664-14.336 32-32 32zM480 224h-416v32h416v-32z" />
<glyph unicode="&#x65;" d="M480 480h-448c-17.664 0-32-14.336-32-32v-224c0-17.664 14.336-32 32-32h211.136v-168.288c0-6.912 4.448-13.024 10.976-15.2 1.664-0.544 3.328-0.8 5.024-0.8 4.96 0 9.792 2.336 12.832 6.464l52.224 70.368 42.336-105.792c2.496-6.272 8.512-10.048 14.848-10.048 1.984 0 4 0.352 5.952 1.152 8.224 3.296 12.192 12.608 8.896 20.8l-42.784 106.976 91.584-17.728c6.656-1.344 13.376 1.76 16.8 7.584s2.816 13.216-1.536 18.4l-72.544 86.112h92.256c17.664 0 32 14.336 32 32v224c0 17.664-14.336 32-32 32zM332.512 134.208c-6.016 1.216-12.256-1.248-15.872-6.176l-41.504-55.936v204.032l131.488-156.256-74.112 14.336zM480 224h-119.168l-89.472 106.304c-4.288 5.152-11.488 7.040-17.696 4.736-6.336-2.304-10.528-8.32-10.528-15.040v-96h-211.136v224h448v-224z" />
<glyph unicode="&#x66;" d="M256 480c-8.832 0-16-7.168-16-16s7.168-16 16-16c123.488 0 224-100.48 224-224s-100.512-224-224-224-224 100.48-224 224c0 34.656 7.68 67.84 22.816 98.624 3.904 7.936 0.672 17.504-7.296 21.408-7.936 3.84-17.472 0.608-21.408-7.296-17.344-35.2-26.112-73.152-26.112-112.736 0-141.152 114.848-256 256-256s256 114.848 256 256-114.848 256-256 256zM148.672 116.672c3.136-3.104 7.232-4.672 11.328-4.672s8.192 1.568 11.328 4.672l192 192c6.24 6.24 6.24 16.384 0 22.624s-16.384 6.24-22.624 0l-192-192c-6.272-6.24-6.272-16.352-0.032-22.624zM360 144c0-13.255-10.745-24-24-24s-24 10.745-24 24c0 13.255 10.745 24 24 24 13.255 0 24-10.745 24-24zM200 304c0-13.255-10.745-24-24-24s-24 10.745-24 24c0 13.255 10.745 24 24 24 13.255 0 24-10.745 24-24z" />
<glyph unicode="&#x67;" d="M200.288 35.104l55.712-78.816 55.712 78.816c100.576 25.408 170.272 114.56 170.272 218.912 0 124.608-101.376 225.984-225.984 225.984s-225.984-101.376-225.984-225.984c0-104.352 69.696-193.504 170.272-218.912zM256 448c106.976 0 193.984-87.040 193.984-193.984 0-89.92-63.648-169.44-151.36-189.152l-6.016-1.344-36.608-51.808-36.64 51.808-6.016 1.344c-87.712 19.68-151.36 99.232-151.36 189.152 0.032 106.944 87.040 193.984 194.016 193.984zM176 288h160c8.832 0 16 7.168 16 16s-7.168 16-16 16h-160c-8.832 0-16-7.168-16-16s7.168-16 16-16zM144 224h224c8.832 0 16 7.168 16 16s-7.168 16-16 16h-224c-8.832 0-16-7.168-16-16s7.168-16 16-16zM336 192h-160c-8.832 0-16-7.168-16-16s7.168-16 16-16h160c8.832 0 16 7.168 16 16s-7.168 16-16 16z" />
<glyph unicode="&#x68;" d="M496 288h-480c-8.832 0-16-7.168-16-16s7.168-16 16-16h480c8.832 0 16 7.168 16 16s-7.168 16-16 16zM16 64h416c8.832 0 16 7.168 16 16s-7.168 16-16 16h-416c-8.832 0-16-7.168-16-16s7.168-16 16-16zM16 352h384c8.832 0 16 7.168 16 16s-7.168 16-16 16h-384c-8.832 0-16-7.168-16-16s7.168-16 16-16zM16 160h288c8.832 0 16 7.168 16 16s-7.168 16-16 16h-288c-8.832 0-16-7.168-16-16s7.168-16 16-16z" />
<glyph unicode="&#x69;" d="M489.344 480c-2.944 0-6.080-0.48-9.344-1.472l-320-54.432c-17.664-5.376-32-24.096-32-41.76v-32c0-0.96 0-2.656 0-3.936 0-22.368 0-90.4 0-90.4v-128h-48c-44.192 0-80-35.808-80-80s35.808-80 80-80 80 35.808 80 80v213.344l320 53.344v-122.688h-48c-44.192 0-80-35.808-80-80s35.808-80 80-80 80 35.808 80 80v208c0 0 0 68.096 0 95.808 0 3.52 0 6.496 0 8.48v32c0 14.432-9.536 23.712-22.656 23.712zM128 48c0-26.464-21.536-48-48-48s-48 21.536-48 48 21.536 48 48 48h48v-48zM480 112c0-26.464-21.536-48-48-48s-48 21.536-48 48 21.536 48 48 48h48v-48zM160 293.76v88.576c0 2.784 3.872 8.608 8.16 10.688l311.84 53.056v-98.976l-320-53.344z" />
<glyph unicode="&#x70;" d="M32 160c0-17.664 14.336-32 32-32h384c17.664 0 32 14.336 32 32v192c0 17.664-14.336 32-32 32h-384c-17.664 0-32-14.336-32-32v-192zM64 352h384v-192h-384v192zM464 416c8.832 0 16 7.168 16 16s-7.168 16-16 16h-416c-8.832 0-16-7.168-16-16s7.168-16 16-16h416zM48 64h416c8.832 0 16 7.168 16 16s-7.168 16-16 16h-416c-8.832 0-16-7.168-16-16s7.168-16 16-16zM48 0h416c8.832 0 16 7.168 16 16s-7.168 16-16 16h-416c-8.832 0-16-7.168-16-16s7.168-16 16-16z" />
</font>
</defs>
</svg>
